<svg width="13" height="16" viewBox="0 0 13 16" fill="none" xmlns="http://www.w3.org/2000/svg">
<path d="M11.25 3.63411H9.66669C9.66669 1.9272 8.2496 0.544678 6.50002 0.544678C4.75044 0.544678 3.33335 1.9272 3.33335 3.63411H1.75002C0.879187 3.63411 0.166687 4.32923 0.166687 5.17882V14.4471C0.166687 15.2967 0.879187 15.9918 1.75002 15.9918H11.25C12.1209 15.9918 12.8334 15.2967 12.8334 14.4471V5.17882C12.8334 4.32923 12.1209 3.63411 11.25 3.63411ZM4.91669 6.72354C4.91669 7.14834 4.56044 7.4959 4.12502 7.4959C3.6896 7.4959 3.33335 7.14834 3.33335 6.72354V5.17882H4.91669V6.72354ZM6.50002 2.08939C7.37085 2.08939 8.08335 2.78452 8.08335 3.63411H4.91669C4.91669 2.78452 5.62919 2.08939 6.50002 2.08939ZM9.66669 6.72354C9.66669 7.14834 9.31044 7.4959 8.87502 7.4959C8.4396 7.4959 8.08335 7.14834 8.08335 6.72354V5.17882H9.66669V6.72354Z" fill="white"/>
</svg>
