<svg width="42" height="42" viewBox="0 0 42 42" fill="none" xmlns="http://www.w3.org/2000/svg">
<circle cx="21" cy="21" r="21" fill="white"/>
<path d="M11 23H31V28H11V23Z" fill="#1EB53A"/>
<path d="M11 13H31V18H11V13Z" fill="#0099B5"/>
<path d="M11 17.8H31V23.2H11V17.8Z" fill="#CE1126"/>
<path d="M11 18.1001H31V22.9001H11V18.1001Z" fill="white"/>
<path d="M15.2 17.2001C16.1941 17.2001 17 16.3942 17 15.4001C17 14.406 16.1941 13.6001 15.2 13.6001C14.2059 13.6001 13.4 14.406 13.4 15.4001C13.4 16.3942 14.2059 17.2001 15.2 17.2001Z" fill="white"/>
<path d="M15.8 17.2001C16.7941 17.2001 17.6 16.3942 17.6 15.4001C17.6 14.406 16.7941 13.6001 15.8 13.6001C14.8059 13.6001 14 14.406 14 15.4001C14 16.3942 14.8059 17.2001 15.8 17.2001Z" fill="#0099B5"/>
<path d="M19.1594 16.4807L19.0453 16.8227L19.2194 16.8827" fill="white"/>
<path d="M19.1594 16.4807L19.0453 16.8227L19.2194 16.8827" fill="white"/>
<path d="M19.1594 16.4807L19.0453 16.8227L19.2194 16.8827" fill="white"/>
<path d="M19.1594 16.4807L19.0453 16.8227L19.2194 16.8827" fill="white"/>
<path d="M19.1594 16.4807L19.0453 16.8227L19.2194 16.8827" fill="white"/>
<path d="M19.1594 16.4807L19.0453 16.8227L19.2194 16.8827" fill="white"/>
<path d="M19.1594 16.4807L19.0453 16.8227L19.2194 16.8827" fill="white"/>
<path d="M19.1594 16.4807L19.0453 16.8227L19.2194 16.8827" fill="white"/>
<path d="M19.1594 16.4807L19.0453 16.8227L19.2194 16.8827" fill="white"/>
<path d="M19.1594 16.4807L19.0453 16.8227L19.2194 16.8827" fill="white"/>
<path d="M19.1594 16.4807L19.0453 16.8227L19.2194 16.8827" fill="white"/>
<path d="M19.1594 16.4807L19.0453 16.8227L19.2194 16.8827" fill="white"/>
<path d="M19.1594 16.4807L19.0453 16.8227L19.2194 16.8827" fill="white"/>
<path d="M19.1594 16.4807L19.0453 16.8227L19.2194 16.8827" fill="white"/>
<path d="M19.1594 16.4807L19.0453 16.8227L19.2194 16.8827" fill="white"/>
<path d="M19.1594 16.4807L19.0453 16.8227L19.2194 16.8827" fill="white"/>
<path d="M19.1594 16.4807L19.0453 16.8227L19.2194 16.8827" fill="white"/>
<path d="M19.1594 16.4807L19.0453 16.8227L19.2194 16.8827" fill="white"/>
<path d="M19.1594 16.4807L19.0453 16.8227L19.2194 16.8827" fill="white"/>
<path d="M19.1594 16.4807L19.0453 16.8227L19.2194 16.8827" fill="white"/>
<path d="M19.1594 16.4807L19.0453 16.8227L19.2194 16.8827" fill="white"/>
<path d="M19.1594 16.4807L19.0453 16.8227L19.2194 16.8827" fill="white"/>
<path d="M19.1594 16.4807L19.0453 16.8227L19.2194 16.8827" fill="white"/>
<path d="M19.1594 16.4807L19.0453 16.8227L19.2194 16.8827" fill="white"/>
<path d="M19.1594 16.4807L19.0453 16.8227L19.2194 16.8827" fill="white"/>
<path d="M19.1594 16.4807L19.0453 16.8227L19.2194 16.8827" fill="white"/>
<path d="M19.1594 16.4807L19.0453 16.8227L19.2194 16.8827" fill="white"/>
<path d="M19.1594 16.4807L19.0453 16.8227L19.2194 16.8827" fill="white"/>
<path d="M19.1594 16.4807L19.0453 16.8227L19.2194 16.8827" fill="white"/>
<path d="M19.1594 16.4807L19.0453 16.8227L19.2194 16.8827" fill="white"/>
<path d="M19.1594 16.4807L19.0453 16.8227L19.2194 16.8827" fill="white"/>
<path d="M19.1594 16.4807L19.0453 16.8227L19.2194 16.8827" fill="white"/>
<path d="M19.1594 16.4807L19.0453 16.8227L19.2194 16.8827" fill="white"/>
<path d="M19.1594 16.4807L19.0453 16.8227L19.2194 16.8827" fill="white"/>
<path d="M19.1594 16.4807L19.0453 16.8227L19.2194 16.8827" fill="white"/>
<path d="M19.1594 16.4807L19.0453 16.8227L19.2194 16.8827" fill="white"/>
<path d="M19.1594 16.4807L19.0453 16.8227L19.2194 16.8827" fill="white"/>
<path d="M19.1594 16.4807L19.0453 16.8227L19.2194 16.8827" fill="white"/>
<path d="M19.1594 16.4807L19.0453 16.8227L19.2194 16.8827" fill="white"/>
<path d="M19.1594 16.4807L19.0453 16.8227L19.2194 16.8827" fill="white"/>
<path d="M19.1594 16.4807L19.0453 16.8227L19.2194 16.8827" fill="white"/>
<path d="M19.1594 16.4807L19.0453 16.8227L19.2194 16.8827" fill="white"/>
<path d="M19.1594 16.4807L19.0453 16.8227L19.2194 16.8827" fill="white"/>
<path d="M19.1594 16.4807L19.0453 16.8227L19.2194 16.8827" fill="white"/>
<path d="M19.1594 16.4807L19.0453 16.8227L19.2194 16.8827" fill="white"/>
<path d="M19.1594 16.4807L19.0453 16.8227L19.2194 16.8827" fill="white"/>
<path d="M19.1594 16.4807L19.0453 16.8227L19.2194 16.8827" fill="white"/>
<path d="M19.1594 16.4807L19.0453 16.8227L19.2194 16.8827" fill="white"/>
<path d="M19.1594 16.4807L19.0453 16.8227L19.2194 16.8827" fill="white"/>
<path d="M19.1594 16.4807L19.0453 16.8227L19.2194 16.8827" fill="white"/>
<path d="M19.1594 16.4807L19.0453 16.8227L19.2194 16.8827" fill="white"/>
<path d="M19.1594 16.4807L19.0453 16.8227L19.2194 16.8827" fill="white"/>
<path d="M19.1594 16.4807L19.0453 16.8227L19.2194 16.8827" fill="white"/>
<path d="M19.1594 16.4807L19.0453 16.8227L19.2194 16.8827" fill="white"/>
<path d="M19.1594 16.4807L19.0453 16.8227L19.2194 16.8827" fill="white"/>
<path d="M19.1594 16.4807L19.0453 16.8227L19.2194 16.8827" fill="white"/>
<path d="M19.1594 16.4807L19.0453 16.8227L19.2194 16.8827" fill="white"/>
<path d="M19.1594 16.4807L19.0453 16.8227L19.2194 16.8827" fill="white"/>
<path d="M19.1594 16.4807L19.0453 16.8227L19.2194 16.8827" fill="white"/>
<path d="M19.1594 16.4807L19.0453 16.8227L19.2194 16.8827" fill="white"/>
</svg>
