<svg width="14" height="15" viewBox="0 0 14 15" fill="none" xmlns="http://www.w3.org/2000/svg">
<path d="M7.50002 6.00008C7.86669 6.00008 8.16669 5.70008 8.16669 5.33342V4.00008H9.50002C9.86669 4.00008 10.1667 3.70008 10.1667 3.33341C10.1667 2.96675 9.86669 2.66675 9.50002 2.66675H8.16669V1.33341C8.16669 0.966748 7.86669 0.666748 7.50002 0.666748C7.13335 0.666748 6.83335 0.966748 6.83335 1.33341V2.66675H5.50002C5.13335 2.66675 4.83335 2.96675 4.83335 3.33341C4.83335 3.70008 5.13335 4.00008 5.50002 4.00008H6.83335V5.33342C6.83335 5.70008 7.13335 6.00008 7.50002 6.00008ZM4.16669 12.0001C3.43335 12.0001 2.84002 12.6001 2.84002 13.3334C2.84002 14.0667 3.43335 14.6667 4.16669 14.6667C4.90002 14.6667 5.50002 14.0667 5.50002 13.3334C5.50002 12.6001 4.90002 12.0001 4.16669 12.0001ZM10.8334 12.0001C10.1 12.0001 9.50669 12.6001 9.50669 13.3334C9.50669 14.0667 10.1 14.6667 10.8334 14.6667C11.5667 14.6667 12.1667 14.0667 12.1667 13.3334C12.1667 12.6001 11.5667 12.0001 10.8334 12.0001ZM4.90002 8.66675H9.86669C10.3667 8.66675 10.8067 8.39341 11.0334 7.98008L13.2867 3.89341C13.4667 3.57341 13.3467 3.16675 13.0267 2.98675C12.7067 2.81341 12.3 2.92675 12.1267 3.24675L9.86669 7.33342H5.18669L2.52669 1.71341C2.42002 1.48008 2.18002 1.33341 1.92669 1.33341H0.833354C0.466687 1.33341 0.166687 1.63341 0.166687 2.00008C0.166687 2.36675 0.466687 2.66675 0.833354 2.66675H1.50002L3.90002 7.72675L3.00002 9.35341C2.51335 10.2467 3.15335 11.3334 4.16669 11.3334H11.5C11.8667 11.3334 12.1667 11.0334 12.1667 10.6667C12.1667 10.3001 11.8667 10.0001 11.5 10.0001H4.16669L4.90002 8.66675Z" fill="#0A0A0A"/>
</svg>
